<svg width="102" height="102" viewBox="0 0 102 102" fill="none" xmlns="http://www.w3.org/2000/svg">
<path d="M87.1935 9.04832H70.7418C64.7782 11.4132 63.4561 7.40317 51 7.40317C38.5438 7.40317 37.2218 11.4132 31.258 9.04832H14.8065L12.6129 50.3832C13.984 66.6291 24.0604 75.4718 32.0123 78.6936H69.9879C77.9395 75.4718 88.0162 66.6291 89.3872 50.3832L87.1935 9.04832Z" fill="#FFFFFA"/>
<path d="M70.742 9.04832C89.2655 14.5928 79.1815 43.1854 91.1087 55.5448C92.821 57.319 95.8463 56.5309 96.5609 54.1712C97.5052 51.0532 98.4483 46.1205 98.2983 39.0726C98.0927 29.4073 102 28.7905 102 28.7905C102 28.7905 97.0646 5.75803 82.258 5.75803C77.3226 5.75803 70.742 9.04832 70.742 9.04832Z" fill="#FCA961"/>
<path d="M33.7258 51.8226C30.5588 51.8226 27.9677 49.2315 27.9677 46.0646V42.7743C27.9677 39.6073 30.5588 37.0162 33.7258 37.0162C36.8927 37.0162 39.4838 39.6073 39.4838 42.7743V46.0646C39.484 49.2317 36.8927 51.8226 33.7258 51.8226Z" fill="#293B3B"/>
<path d="M33.7257 37.016C33.4442 37.016 33.1741 37.0601 32.9032 37.0995V45.2418C32.9032 47.0589 34.3764 48.5321 36.1935 48.5321C38.0107 48.5321 39.4838 47.0589 39.4838 45.2418V42.7743C39.484 39.6075 36.8927 37.016 33.7257 37.016Z" fill="#395252"/>
<path d="M33.7257 43.5966C35.0886 43.5966 36.1935 42.4918 36.1935 41.1289C36.1935 39.766 35.0886 38.6612 33.7257 38.6612C32.3628 38.6612 31.258 39.766 31.258 41.1289C31.258 42.4918 32.3628 43.5966 33.7257 43.5966Z" fill="white"/>
<path d="M68.2743 51.8226C65.1073 51.8226 62.5162 49.2315 62.5162 46.0646V42.7743C62.5162 39.6073 65.1073 37.0162 68.2743 37.0162C71.4412 37.0162 74.0323 39.6073 74.0323 42.7743V46.0646C74.0323 49.2317 71.441 51.8226 68.2743 51.8226Z" fill="#293B3B"/>
<path d="M68.2743 37.016C67.9928 37.016 67.7226 37.0601 67.4517 37.0995V45.2418C67.4517 47.0589 68.9249 48.5321 70.742 48.5321C72.5593 48.5321 74.0323 47.0589 74.0323 45.2418V42.7743C74.0323 39.6075 71.441 37.016 68.2743 37.016Z" fill="#395252"/>
<path d="M68.2743 43.5966C69.6371 43.5966 70.742 42.4918 70.742 41.1289C70.742 39.766 69.6371 38.6612 68.2743 38.6612C66.9114 38.6612 65.8065 39.766 65.8065 41.1289C65.8065 42.4918 66.9114 43.5966 68.2743 43.5966Z" fill="white"/>
<path d="M91.1087 55.545C92.821 57.3192 95.8463 56.5311 96.5609 54.1712C97.1024 52.383 97.6365 49.9756 97.9714 46.9369C94.7373 45.3249 91.9765 40.1814 90.2782 31.4638C87.1935 15.6291 82.875 6.7864 70.742 9.04833C89.2655 14.5928 79.1815 43.1857 91.1087 55.545Z" fill="#FDC795"/>
<path d="M32.0123 78.6936H39.8099C39.8099 78.6936 26.1172 69.5082 23.855 53.2621C19.4545 21.6575 27.8309 12.2016 35.0758 9.78862C33.9281 9.82747 32.736 9.63443 31.2582 9.04852H14.8065L12.6129 50.3832C13.984 66.6291 24.0604 75.4718 32.0123 78.6936Z" fill="#C7CACD" fill-opacity="0.59"/>
<path d="M31.258 9.04832C12.7345 14.5928 22.8187 43.1856 10.8913 55.5448C9.179 57.319 6.15367 56.5309 5.43907 54.1712C4.49477 51.0532 3.55167 46.1205 3.70168 39.0726C3.90728 29.4073 0 28.7905 0 28.7905C0 28.7905 4.93545 5.75803 19.742 5.75803C24.6774 5.75803 31.258 9.04832 31.258 9.04832Z" fill="#FDC795"/>
<path d="M30.7074 8.78635C29.0379 8.01179 23.8311 5.75803 19.742 5.75803C4.93545 5.75803 0 28.7905 0 28.7905C0 28.7905 3.90728 29.4075 3.70168 39.0728C3.69889 39.2019 3.70268 39.318 3.70069 39.4457C13.1678 3.52917 27.7151 7.5251 30.7074 8.78635Z" fill="#F7AE6A"/>
<path d="M51 92.9515C60.9947 92.9515 69.097 87.0594 69.097 79.7911C69.097 72.5228 60.9947 66.6307 51 66.6307C41.0053 66.6307 32.903 72.5228 32.903 79.7911C32.903 87.0594 41.0053 92.9515 51 92.9515Z" fill="#FDC795"/>
<path d="M42.7743 79.7903V88.016C42.7743 92.559 46.457 96.2418 51 96.2418C55.543 96.2418 59.2257 92.559 59.2257 88.016V79.7903H42.7743Z" fill="#FF8087"/>
<path d="M42.7743 86.2155C45.1531 85.9175 47.3977 85.1937 49.3548 84.0994V86.3709C49.3548 87.2793 50.0915 88.016 51 88.016C51.9084 88.016 52.6451 87.2793 52.6451 86.3709V84.0785C54.5833 85.1845 56.8339 85.9163 59.2257 86.2161V79.7901H42.7743V86.2155Z" fill="#E6646E"/>
<path d="M61.6935 64.984H40.3065C33.4921 64.984 27.9679 69.0351 27.9679 74.0323C27.9679 79.0295 33.4923 83.0806 40.3065 83.0806C43.7381 83.0806 46.8373 82.0508 49.0712 80.3915C49.6367 79.9716 50.3187 79.7616 50.9994 79.7616C51.6813 79.7616 52.3633 79.9714 52.9288 80.3915C55.1627 82.0508 58.2619 83.0806 61.6935 83.0806C68.5079 83.0806 74.0321 79.0295 74.0321 74.0323C74.0323 69.0351 68.5079 64.984 61.6935 64.984Z" fill="#FCA961"/>
<path d="M51 58.4032C56.4516 58.4032 60.8709 61.3494 60.8709 64.9838C60.8709 68.4888 56.7224 70.3344 53.7283 71.699C51.9927 72.4901 50.0069 72.4901 48.2713 71.699C45.2772 70.3344 41.1287 68.4888 41.1287 64.9838C41.1291 61.3496 45.5484 58.4032 51 58.4032Z" fill="#395252"/>
<path d="M46.0131 63.1844C45.783 61.1139 47.2415 58.8998 47.2415 58.8998C43.655 59.8857 41.1291 62.2369 41.1291 64.9838C41.1291 68.4886 45.2776 70.3342 48.2717 71.699C50.0071 72.4899 51.9931 72.4899 53.7287 71.699C54.3726 71.4056 55.0698 71.0876 55.7677 70.738C51.7198 70.0222 46.4757 67.3489 46.0131 63.1844Z" fill="#293B3B"/>
</svg>
